Motion_pu04
version=1
nRows=13
nColumns=43
inDegrees=yes
endheader
time	pelvis_tilt	pelvis_list	pelvis_rotation	pelvis_tx	pelvis_ty	pelvis_tz	hip_flexion_r	hip_adduction_r	hip_rotation_r	knee_angle_r	ankle_angle_r	subtalar_angle_r	mtp_angle_r	hip_flexion_l	hip_adduction_l	hip_rotation_l	knee_angle_l	ankle_angle_l	subtalar_angle_l	mtp_angle_l	lumbar_extension	lumbar_bending	lumbar_rotation	neck_flexion	neck_lateral_bending	neck_rotation	arm_flex_r	arm_add_r	arm_rot_r	elbow_flex_r	pro_sup_r	wrist_flex_r	wrist_dev_r	hand_finger_flex_r	arm_flex_l	arm_add_l	arm_rot_l	elbow_flex_l	pro_sup_l	wrist_flex_l	wrist_dev_l	hand_finger_flex_l
      0.62750000	      1.24138212	      5.89040813	     86.01710496	      0.01277638	      1.05247692	      0.65560499	     22.61874408	     -2.06853964	    -12.87871906	    -20.63849611	    -19.05481084	      0.51129503	      1.64494168	     24.03531175	     -8.69059333	    -14.01507232	    -20.82059101	    -26.86136843	      8.25390636	     14.84092455	    -35.03057411	     -1.23827546	      2.13194799	    -12.18441819	     -0.60954379	      1.01646713	    -43.00188685	    -33.05810285	    -25.39975056	     98.89220103	    114.08445499	    -11.91761474	    -22.36922755	    -10.20991442	    -36.52099299	    -17.93263572	    -21.84105123	     61.69323970	    104.87000396	    -29.79068450	    -12.12047301	     -2.57496694
      0.63000000	      1.19924954	      5.89495938	     86.16955817	      0.01224079	      1.04222795	      0.65107613	     23.18404280	     -2.18716032	    -12.41474479	    -21.72512520	    -18.84372672	      0.39533500	      1.72979310	     24.64900254	     -8.61377225	    -13.18956278	    -22.13800880	    -26.87916433	      7.82067039	     14.76611530	    -35.03571307	     -1.18632253	      2.05762541	    -11.99822214	     -0.61362344	      0.99631474	    -42.94876974	    -32.53205900	    -25.55314703	     98.96114343	    114.13874286	    -12.00485374	    -22.55088720	    -10.20201740	    -36.40429063	    -17.68436392	    -22.21836922	     61.75487308	    105.07291258	    -29.99285708	    -12.23514965	     -2.71917442
      0.63250000	      1.14746947	      5.82985835	     86.31055087	      0.01166173	      1.03190650	      0.64669992	     23.87566189	     -2.29627879	    -11.92160283	    -22.91033832	    -18.67948376	      0.17758262	      1.76721266	     25.38374019	     -8.47796251	    -12.23738161	    -23.52270781	    -26.92885917	      7.08121764	     14.54144300	    -34.99686225	     -1.15074220	      1.98917554	    -11.73082878	     -0.57072331	      0.95079511	    -42.71775242	    -31.99390942	    -25.67594241	     98.89336854	    114.26124284	    -12.05318034	    -22.80846979	    -10.15505896	    -36.16195733	    -17.43312216	    -22.57423638	     61.70063920	    105.42457297	    -30.14436101	    -12.33763652	     -2.83045570
      0.63500000	      1.12546874	      5.97079142	     86.46226600	      0.01116780	      1.02166720	      0.64225852	     24.36313052	     -2.40750409	    -11.51554312	    -24.15463895	    -18.68819942	      0.10791784	      1.75668280	     25.90197239	     -8.42537232	    -11.54981590	    -24.93287923	    -27.17491684	      6.82742488	     14.39814543	    -35.17742183	     -1.08497120	      1.91806454	    -11.54904501	     -0.63127705	      0.94276282	    -42.65158304	    -31.54121029	    -25.82317884	     99.08238110	    114.28725358	    -12.14501602	    -22.99459275	    -10.16084073	    -36.06215465	    -17.19192278	    -22.95932218	     61.92363353	    105.54106658	    -30.37308888	    -12.43036928	     -2.89836583
      0.63750000	      1.10127734	      6.05356953	     86.63038304	      0.01066181	      1.01129044	      0.63792668	     24.97432389	     -2.50330127	    -11.05231819	    -25.50109284	    -18.68842629	      0.01015408	      1.72950961	     26.54120262	     -8.32845048	    -10.72301553	    -26.42365115	    -27.38877106	      6.42795982	     14.24525439	    -35.33267438	     -1.01719539	      1.82926643	    -11.17235682	     -0.63559186	      0.89355438	    -42.45469123	    -31.06886465	    -25.94241488	     99.17927558	    114.33284821	    -12.21434781	    -23.19992724	    -10.15664239	    -35.85597247	    -16.96771477	    -23.31771221	     62.04593054	    105.68192977	    -30.58902015	    -12.49976867	     -2.92676087
      0.64000000	      1.04999321	      6.05882036	     86.76581678	      0.01013162	      1.00085424	      0.63370660	     25.68107720	     -2.59396657	    -10.57481619	    -26.83816099	    -18.77030653	     -0.16439895	      1.65191176	     27.28912668	     -8.14899398	     -9.79962604	    -27.92834868	    -27.72390305	      5.66322212	     13.98281970	    -35.42589736	     -0.99094133	      1.76055696	    -10.74716521	     -0.60602698	      0.82160440	    -42.09180447	    -30.56654295	    -26.05047285	     99.11264616	    114.46120332	    -12.24769232	    -23.52396485	    -10.11123257	    -35.52551775	    -16.74184282	    -23.66424481	     62.04527723	    105.99304997	    -30.79894907	    -12.54389780	     -2.85343348
      0.64250000	      1.04748632	      6.29200653	     86.92604424	      0.00959648	      0.99051919	      0.62938903	     26.17606809	     -2.66455112	    -10.10853125	    -28.25920865	    -18.92302498	     -0.11827310	      1.65423399	     27.78277474	     -8.06041399	     -9.12263990	    -29.41168384	    -28.08979479	      5.46126988	     13.91706217	    -35.74880328	     -0.89757169	      1.70533318	    -10.46361687	     -0.67401205	      0.79079429	    -41.90772444	    -30.20920331	    -26.16621305	     99.28722524	    114.49512599	    -12.32148387	    -23.72485274	    -10.11527216	    -35.31157667	    -16.53785636	    -23.96300593	     62.30153313	    106.10724273	    -31.03023410	    -12.60553024	     -2.83595683
      0.64500000	      1.02880384	      6.45299158	     87.06734063	      0.00907465	      0.98005487	      0.62523805	     26.77896913	     -2.71655381	     -9.56614435	    -29.71516139	    -18.87485400	     -0.04430625	      1.77218927	     28.39200421	     -7.92465391	     -8.35636446	    -30.94263847	    -28.29776598	      5.18932152	     13.98335991	    -36.04543692	     -0.82896229	      1.65341856	     -9.97546995	     -0.70631815	      0.73001083	    -41.58475402	    -29.83763270	    -26.27731924	     99.40804744	    114.54076789	    -12.38578233	    -23.94104664	    -10.11620769	    -34.99817685	    -16.35562519	    -24.25298857	     62.47442017	    106.23313870	    -31.27095944	    -12.63102262	     -2.79938859
      0.64750000	      1.01783347	      6.63976412	     87.19363692	      0.00854543	      0.96953558	      0.62108197	     27.38574055	     -2.73423859	     -8.96675979	    -31.25652187	    -18.59563401	      0.09795279	      2.03457372	     28.98492540	     -7.78070405	     -7.63176955	    -32.50622171	    -28.30016370	      4.98675776	     14.21598422	    -36.36742139	     -0.75372867	      1.60851221	     -9.50921181	     -0.74594701	      0.67609644	    -41.24784625	    -29.49076551	    -26.35439170	     99.55731829	    114.59090112	    -12.44014238	    -24.16867334	    -10.11679801	    -34.67559376	    -16.18640289	    -24.50466243	     62.65302964	    106.35911801	    -31.51294679	    -12.65210424	     -2.76202260
      0.65000000	      0.98789587	      6.77654203	     87.30983364	      0.00798667	      0.95886266	      0.61705325	     28.07427816	     -2.73010341	     -8.26526556	    -32.90754748	    -17.80616803	      0.33565171	      2.56748406	     29.65528736	     -7.60358805	     -6.88907131	    -34.13435243	    -27.84181452	      4.85753459	     14.73907347	    -36.66854674	     -0.69852151	      1.58581274	     -8.92656298	     -0.80488643	      0.62708034	    -40.87697899	    -29.19760624	    -26.45676135	     99.66911545	    114.65784476	    -12.48668077	    -24.41437217	    -10.11129545	    -34.30378286	    -16.01313804	    -24.74962345	     62.87331261	    106.51860020	    -31.79368049	    -12.66902566	     -2.71381920
      0.65250000	      0.96116634	      7.14348294	     87.37081440	      0.00742929	      0.94840766	      0.61281509	     28.51576645	     -2.86092789	     -7.87638178	    -34.71640676	    -16.44797020	      1.85615254	      5.52617235	     30.02426128	     -7.48378778	     -6.34501720	    -35.80757474	    -26.88013668	      5.37918556	     17.97925651	    -37.17835787	     -0.69360472	      1.60004438	     -8.49557688	     -0.73683257	      0.60640800	    -40.45725726	    -28.94077837	    -26.58392018	     99.72195948	    114.98204596	    -12.44965488	    -24.99999983	     -9.98255127	    -33.92961317	    -15.85319360	    -24.99128660	     63.10572143	    107.34341110	    -32.41382755	    -12.48029962	     -2.18245078
      0.65500000	      0.97752364	      7.23401035	     87.42285582	      0.00701912	      0.93756370	      0.60907491	     29.35849322	     -2.65466887	     -6.91858188	    -36.68324340	    -14.83410558	      1.54364916	      6.17357023	     30.80931479	     -7.35760743	     -5.65657417	    -37.65293296	    -25.61723540	      5.25700343	     18.61577315	    -37.48837250	     -0.60779118	      1.52870662	     -7.88479460	     -0.85943126	      0.55517453	    -39.95320426	    -28.68228300	    -26.61374988	    100.07850761	    114.93415545	    -12.53948726	    -24.99999983	    -10.02451669	    -33.54398277	    -15.72685799	    -25.18946404	     63.25637752	    107.31747825	    -32.58340784	    -12.44052335	     -2.17410968
      0.65750000	      0.90481547	      7.40269567	     87.53357268	      0.00642359	      0.92669164	      0.60510466	     30.04091815	     -2.68664019	     -6.20519903	    -38.68851653	    -13.19451016	      2.05336826	     15.94180270	     31.39269270	     -7.18522305	     -5.17733162	    -39.41373721	    -24.03509195	      5.68597106	     29.44734392	    -37.84758570	     -0.60627861	      1.55158063	     -7.13951389	     -0.87377452	      0.52460077	    -39.61338664	    -28.57601268	    -26.60512923	    100.27864265	    115.07301633	    -12.55451693	    -24.99999983	     -9.94859449	    -33.05618225	    -15.59558351	    -25.37045819	     63.61686318	    107.95086538	    -33.42160968	    -11.94372419	     -0.82247816
